<svg xmlns="http://www.w3.org/2000/svg" fill="none" width="128" height="128" viewBox="0 0 128 128"><defs><linearGradient x1=".5" y1="0" x2=".5" y2="1" id="b"><stop offset="30.205%" stop-color="#C7FCFF"/><stop offset="100%" stop-color="#FFF"/></linearGradient><linearGradient x1="1.012" y1=".5" x2=".006" y2=".5" id="c"><stop offset="0%" stop-color="#171AFF"/><stop offset="100%" stop-color="#72F5F6"/></linearGradient><linearGradient x1="1.012" y1=".5" x2=".006" y2=".5" id="d"><stop offset="0%" stop-color="#171AFF"/><stop offset="100%" stop-color="#72F5F6"/></linearGradient><clipPath id="a"><rect width="128" height="128" rx="0"/></clipPath></defs><g clip-path="url(#a)"><path d="M18.606 36.011 0 10l39.692 9.91L64.5 16.192l24.808 3.716L129 10l-18.606 26.011v27.25l12.404 13.625-2.481 9.91-7.442-3.716 9.923 12.386-2.481 11.148-17.365-8.67-3.721 9.908-12.404 7.432-4.962-7.432-6.201 6.193L64.5 119l-11.163-4.955-6.202-6.193-4.962 7.432-12.404-7.432-3.72-9.909-17.366 8.67-2.481-11.147 9.923-12.386-7.442 3.716-2.481-9.91 12.404-13.625v-27.25Z" fill-rule="evenodd" fill="url(#b)"/><path d="M74.936 57.998 94.06 36.202a14.562 14.562 0 0 1 3.477 9.462c0 8.088-6.574 14.644-14.683 14.644-2.916 0-5.633-.848-7.918-2.31ZM34.94 36.202l19.124 21.796a14.643 14.643 0 0 1-7.918 2.31c-8.109 0-14.683-6.556-14.683-14.644a14.56 14.56 0 0 1 3.477-9.462Z" fill-rule="evenodd" fill="#FFF"/><path d="m79.516 54.158 11.263-12.716a8.62 8.62 0 0 1 1.514 4.89c0 4.824-3.96 8.735-8.843 8.735a8.897 8.897 0 0 1-3.934-.91ZM38.22 41.442l11.263 12.716a8.896 8.896 0 0 1-3.934.91c-4.883 0-8.843-3.912-8.843-8.736a8.62 8.62 0 0 1 1.514-4.89Z" fill-rule="evenodd" fill="#182A72"/><path d="m0 10 31.01 22.296 26.048 29.727L64.5 78.125l7.442-16.102L97.99 32.296 129 10l-39.692 9.91L64.5 16.192 39.692 19.91 0 10Z" fill="url(#c)" opacity=".5"/><path d="M39.854 19.64 64.5 52.972 49.712 18.385l-9.858 1.256ZM64.5 52.972l24.646-33.33-9.785-1.256L64.5 52.97Z" fill="#EBFEFF"/><path d="M18.606 63.261v-27.25L0 10l6.225 1.554 33.467 8.355L64.5 16.193l24.808 3.716 33.467-8.355L129 10l-3.733 5.219-14.873 20.792v27.25l12.404 13.625-1.446 5.777-.829 3.31-.206.823-3.811-1.904-3.631-1.812 6.207 7.748 3.716 4.638-1.55 6.964-.931 4.184-3.835-1.915-9.789-4.888-3.741-1.868-1.47 3.915-2.251 5.994-12.404 7.432-2.607-3.905-2.355-3.527-3 2.997-3.201 3.196L64.5 119l-11.163-4.955-3.202-3.196-3-2.997-2.355 3.527-2.607 3.905-12.404-7.432-2.25-5.994-1.47-3.915-3.742 1.868-9.79 4.888-3.834 1.915-.931-4.184-1.55-6.964 3.716-4.638 6.207-7.748-3.631 1.813-3.811 1.903-.206-.822-.829-3.31-1.446-5.778 12.404-13.625Zm3.383-29.67L9.959 16.774l29.53 7.372L64.5 20.4l25.011 3.746 29.531-7.372-12.807 17.904V64.87l11.987 13.167-.681 2.722-19.755-9.863 20.519 25.613-.891 4.005-16.733-8.355-4.834 12.87-7.76 4.65-5.576-8.35-9.24 9.227-8.771 3.893-8.77-3.893-9.241-9.228-5.576 8.352-7.76-4.65-4.834-12.87-16.732 8.354-.892-4.005 20.52-25.613-19.756 9.863-.681-2.722L22.765 64.87V34.677l-.776-1.085Z" fill-rule="evenodd" fill="url(#d)"/><path d="m64.5 78.125-7.866-16.35L64.5 52.97l7.866 8.804-7.866 16.35Z" fill-rule="evenodd" fill="#182A72"/></g></svg>