<svg xmlns="http://www.w3.org/2000/svg" fill="none" width="20.997" height="20" viewBox="0 0 20.997 20"><defs><mask id="a" style="mask-type:alpha" maskUnits="userSpaceOnUse"><rect width="20.997" height="20" rx="0" fill="currentColor"/></mask></defs><g mask="url(#a)"><path d="M9.168 9.01H4.273c-2.358 0-4.276-1.88-4.276-4.193V4.21c0-2.312 1.918-4.193 4.276-4.193h.62c2.357 0 4.275 1.88 4.275 4.193v4.8ZM4.273 1.69c-1.417 0-2.57 1.13-2.57 2.52v.607c0 1.39 1.153 2.52 2.57 2.52H7.46V4.21c0-1.39-1.153-2.52-2.569-2.52h-.62ZM16.72 9.01h-4.896v-4.8c0-2.312 1.919-4.193 4.276-4.193h.62c2.357 0 4.275 1.88 4.275 4.193v.608c0 2.312-1.918 4.193-4.276 4.193Zm-3.188-1.673h3.188c1.416 0 2.569-1.13 2.569-2.52V4.21c0-1.389-1.152-2.519-2.57-2.519h-.618c-1.417 0-2.57 1.13-2.57 2.52v3.126Zm-8.64 12.637h-.619c-2.358 0-4.276-1.881-4.276-4.193v-.608c0-2.312 1.918-4.193 4.276-4.193h4.895v4.8c0 2.313-1.918 4.194-4.276 4.194Zm-.619-7.32c-1.417 0-2.569 1.13-2.569 2.519v.607c0 1.39 1.152 2.52 2.569 2.52h.62c1.416 0 2.568-1.13 2.568-2.52v-3.126H4.273Zm12.447 7.32h-.619c-2.357 0-4.276-1.88-4.276-4.193v-4.8h4.895c2.357 0 4.276 1.88 4.276 4.192v.608c0 2.312-1.918 4.193-4.276 4.193Zm-3.188-7.32v3.127c0 1.389 1.152 2.519 2.57 2.519h.618c1.417 0 2.569-1.13 2.569-2.52v-.607c0-1.389-1.152-2.518-2.569-2.518h-3.188Z" fill="currentColor"/></g></svg>